<svg width="18" height="21" viewBox="0 0 18 21" fill="none" xmlns="http://www.w3.org/2000/svg">
<path d="M9 21L6 18H2C1.45 18 0.979333 17.8043 0.588 17.413C0.196667 17.0217 0.000666667 16.5507 0 16V2C0 1.45 0.196 0.979333 0.588 0.588C0.98 0.196667 1.45067 0.000666667 2 0H16C16.55 0 17.021 0.196 17.413 0.588C17.805 0.98 18.0007 1.45067 18 2V16C18 16.55 17.8043 17.021 17.413 17.413C17.0217 17.805 16.5507 18.0007 16 18H12L9 21ZM8.9 15C9.25 15 9.546 14.879 9.788 14.637C10.03 14.395 10.1507 14.0993 10.15 13.75C10.1493 13.4007 10.0283 13.1047 9.787 12.862C9.54567 12.6193 9.25 12.4987 8.9 12.5C8.55 12.5013 8.254 12.6223 8.012 12.863C7.77 13.1037 7.64933 13.3993 7.65 13.75C7.65067 14.1007 7.77167 14.3967 8.013 14.638C8.25433 14.8793 8.55 15 8.9 15ZM8 11.15H9.85C9.85 10.8667 9.86267 10.625 9.888 10.425C9.91333 10.225 9.96733 10.0333 10.05 9.85C10.1327 9.66667 10.2367 9.496 10.362 9.338C10.4873 9.18 10.6667 8.984 10.9 8.75C11.4833 8.16667 11.896 7.679 12.138 7.287C12.38 6.895 12.5007 6.44933 12.5 5.95C12.5 5.06667 12.2 4.35433 11.6 3.813C11 3.27167 10.1917 3.00067 9.175 3C8.25833 3 7.47933 3.225 6.838 3.675C6.19667 4.125 5.75067 4.75 5.5 5.55L7.15 6.2C7.26667 5.75 7.5 5.38767 7.85 5.113C8.2 4.83833 8.60833 4.70067 9.075 4.7C9.525 4.7 9.9 4.821 10.2 5.063C10.5 5.305 10.65 5.62567 10.65 6.025C10.65 6.30833 10.5583 6.60833 10.375 6.925C10.1917 7.24167 9.88333 7.59167 9.45 7.975C9.16667 8.20833 8.93733 8.43767 8.762 8.663C8.58667 8.88833 8.441 9.12567 8.325 9.375C8.209 9.62433 8.12567 9.887 8.075 10.163C8.02433 10.439 7.99933 10.768 8 11.15Z" fill="black"/>
</svg>
