<svg width="18" height="18" viewBox="0 0 18 18" fill="none" xmlns="http://www.w3.org/2000/svg">
<path d="M6.00099 12.0003L12.001 6.00031M8.00099 3.00031L8.46399 2.46431C9.40179 1.52663 10.6737 0.999906 11.9998 1C13.326 1.00009 14.5978 1.527 15.5355 2.46481C16.4732 3.40261 16.9999 4.6745 16.9998 6.00066C16.9997 7.32682 16.4728 8.59863 15.535 9.53631L15.001 10.0003M10.001 15.0003L9.60399 15.5343C8.65498 16.472 7.37462 16.9979 6.04049 16.9979C4.70636 16.9979 3.42599 16.472 2.47699 15.5343C2.0091 15.072 1.63762 14.5215 1.38409 13.9146C1.13055 13.3077 1 12.6565 1 11.9988C1 11.3411 1.13055 10.6899 1.38409 10.083C1.63762 9.4761 2.0091 8.92557 2.47699 8.46331L3.00099 8.00031" stroke="#E6E6E6" stroke-width="2" stroke-linecap="round" stroke-linejoin="round"/>
</svg>
