<svg width="22" height="22" viewBox="0 0 22 22" fill="none" xmlns="http://www.w3.org/2000/svg">
<path d="M8.142 20.224C6.48808 19.7301 4.99017 18.8164 3.794 17.572C4.17884 17.1156 4.41874 16.5547 4.483 15.9611C4.54726 15.3676 4.43296 14.7683 4.15473 14.2401C3.87649 13.7119 3.44698 13.2787 2.92115 12.996C2.39532 12.7132 1.79709 12.5938 1.203 12.653C1.06736 11.9901 0.999343 11.3151 1 10.6385C1 9.5935 1.16 8.5855 1.458 7.6385H1.5C2.00988 7.63866 2.51139 7.50887 2.95717 7.26137C3.40295 7.01388 3.7783 6.65685 4.04777 6.224C4.31724 5.79114 4.47194 5.29675 4.49726 4.7875C4.52259 4.27825 4.4177 3.77095 4.1925 3.3135C5.36517 2.22242 6.78277 1.429 8.326 1C8.57719 1.4932 8.95993 1.9073 9.43186 2.19648C9.90379 2.48565 10.4465 2.63864 11 2.6385C11.5535 2.63864 12.0962 2.48565 12.5682 2.19648C13.0401 1.9073 13.4228 1.4932 13.674 1C15.2172 1.429 16.6348 2.22242 17.8075 3.3135C17.5807 3.77416 17.4759 4.28532 17.5031 4.79808C17.5304 5.31083 17.6888 5.80801 17.9632 6.24201C18.2376 6.67602 18.6188 7.03233 19.0703 7.27684C19.5219 7.52135 20.0286 7.64588 20.542 7.6385C20.8464 8.60938 21.0008 9.62102 21 10.6385C21 11.3285 20.93 12.0025 20.797 12.6535C20.2029 12.5943 19.6047 12.7137 19.0789 12.9965C18.553 13.2792 18.1235 13.7124 17.8453 14.2406C17.5671 14.7688 17.4528 15.3681 17.517 15.9616C17.5813 16.5552 17.8212 17.1161 18.206 17.5725C17.0098 18.8168 15.5119 19.7302 13.858 20.224C13.6638 19.6186 13.2824 19.0906 12.7687 18.716C12.2551 18.3413 11.6358 18.1395 11 18.1395C10.3643 18.1395 9.74493 18.3413 9.23129 18.716C8.71765 19.0906 8.33623 19.6186 8.142 20.224Z" stroke="black" stroke-width="2" stroke-linejoin="round"/>
<path d="M11 14.1387C11.4596 14.1387 11.9148 14.0481 12.3394 13.8723C12.764 13.6964 13.1499 13.4386 13.4749 13.1135C13.7999 12.7885 14.0577 12.4027 14.2336 11.9781C14.4095 11.5534 14.5 11.0983 14.5 10.6387C14.5 10.179 14.4095 9.72392 14.2336 9.29928C14.0577 8.87464 13.7999 8.4888 13.4749 8.1638C13.1499 7.83879 12.764 7.58098 12.3394 7.40509C11.9148 7.2292 11.4596 7.13867 11 7.13867C10.0717 7.13867 9.1815 7.50742 8.52513 8.1638C7.86875 8.82018 7.5 9.71041 7.5 10.6387C7.5 11.5669 7.86875 12.4572 8.52513 13.1135C9.1815 13.7699 10.0717 14.1387 11 14.1387Z" stroke="black" stroke-width="2" stroke-linejoin="round"/>
</svg>
