<svg width="50" height="70" viewBox="0 0 50 70" fill="none" xmlns="http://www.w3.org/2000/svg">
<rect y="5" width="50" height="60" rx="4" fill="#5D57EE"/>
<mask id="path-2-outside-1_2024_152" maskUnits="userSpaceOnUse" x="9" y="19" width="33" height="39" fill="black">
<rect fill="white" x="9" y="19" width="33" height="39"/>
<path d="M26.3747 56.144C24.5827 56.144 22.7747 55.968 20.9507 55.616C19.1587 55.232 17.4947 54.688 15.9587 53.984C14.4547 53.248 13.2387 52.368 12.3107 51.344C11.3827 50.288 10.9187 49.072 10.9187 47.696C10.9187 45.936 11.4787 44.528 12.5987 43.472C13.7187 42.416 15.0307 41.92 16.5347 41.984C17.7187 42.016 18.9027 42.272 20.0867 42.752C21.2707 43.2 22.4707 43.648 23.6867 44.096C24.9347 44.544 26.1827 44.768 27.4307 44.768C28.6787 44.768 29.5427 44.608 30.0227 44.288C30.5027 43.968 30.7427 43.536 30.7427 42.992C30.7427 42.352 30.4067 41.824 29.7347 41.408C29.0627 40.992 28.2147 40.672 27.1907 40.448L24.8387 39.872C22.4067 39.296 20.2307 38.656 18.3107 37.952C16.3907 37.216 14.8707 36.256 13.7507 35.072C12.6627 33.856 12.1187 32.24 12.1187 30.224C12.1187 28.016 12.7267 26.224 13.9427 24.848C15.1587 23.44 16.8067 22.416 18.8867 21.776C20.9667 21.136 23.2867 20.816 25.8467 20.816C28.4707 20.816 30.7747 21.088 32.7587 21.632C34.7427 22.176 36.2787 22.96 37.3667 23.984C38.4867 25.008 39.0467 26.256 39.0467 27.728C39.0467 29.296 38.6147 30.528 37.7507 31.424C36.9187 32.288 35.7987 32.72 34.3907 32.72C33.4627 32.72 32.4867 32.56 31.4627 32.24C30.4707 31.92 29.4147 31.616 28.2947 31.328C27.2067 31.008 26.0387 30.848 24.7907 30.848C23.6707 30.848 22.8227 31.024 22.2467 31.376C21.6707 31.696 21.3827 32.128 21.3827 32.672C21.3827 33.344 21.7667 33.84 22.5347 34.16C23.3027 34.48 24.5667 34.864 26.3267 35.312L29.0147 35.936C31.2227 36.48 33.1587 37.136 34.8227 37.904C36.4867 38.672 37.7827 39.68 38.7107 40.928C39.6387 42.176 40.1027 43.808 40.1027 45.824C40.1027 48.256 39.5267 50.24 38.3747 51.776C37.2227 53.28 35.6227 54.384 33.5747 55.088C31.5267 55.792 29.1267 56.144 26.3747 56.144Z"/>
</mask>
<path d="M26.3747 56.144C24.5827 56.144 22.7747 55.968 20.9507 55.616C19.1587 55.232 17.4947 54.688 15.9587 53.984C14.4547 53.248 13.2387 52.368 12.3107 51.344C11.3827 50.288 10.9187 49.072 10.9187 47.696C10.9187 45.936 11.4787 44.528 12.5987 43.472C13.7187 42.416 15.0307 41.92 16.5347 41.984C17.7187 42.016 18.9027 42.272 20.0867 42.752C21.2707 43.2 22.4707 43.648 23.6867 44.096C24.9347 44.544 26.1827 44.768 27.4307 44.768C28.6787 44.768 29.5427 44.608 30.0227 44.288C30.5027 43.968 30.7427 43.536 30.7427 42.992C30.7427 42.352 30.4067 41.824 29.7347 41.408C29.0627 40.992 28.2147 40.672 27.1907 40.448L24.8387 39.872C22.4067 39.296 20.2307 38.656 18.3107 37.952C16.3907 37.216 14.8707 36.256 13.7507 35.072C12.6627 33.856 12.1187 32.24 12.1187 30.224C12.1187 28.016 12.7267 26.224 13.9427 24.848C15.1587 23.44 16.8067 22.416 18.8867 21.776C20.9667 21.136 23.2867 20.816 25.8467 20.816C28.4707 20.816 30.7747 21.088 32.7587 21.632C34.7427 22.176 36.2787 22.96 37.3667 23.984C38.4867 25.008 39.0467 26.256 39.0467 27.728C39.0467 29.296 38.6147 30.528 37.7507 31.424C36.9187 32.288 35.7987 32.72 34.3907 32.72C33.4627 32.72 32.4867 32.56 31.4627 32.24C30.4707 31.92 29.4147 31.616 28.2947 31.328C27.2067 31.008 26.0387 30.848 24.7907 30.848C23.6707 30.848 22.8227 31.024 22.2467 31.376C21.6707 31.696 21.3827 32.128 21.3827 32.672C21.3827 33.344 21.7667 33.84 22.5347 34.16C23.3027 34.48 24.5667 34.864 26.3267 35.312L29.0147 35.936C31.2227 36.48 33.1587 37.136 34.8227 37.904C36.4867 38.672 37.7827 39.68 38.7107 40.928C39.6387 42.176 40.1027 43.808 40.1027 45.824C40.1027 48.256 39.5267 50.24 38.3747 51.776C37.2227 53.28 35.6227 54.384 33.5747 55.088C31.5267 55.792 29.1267 56.144 26.3747 56.144Z" fill="white"/>
<path d="M20.9507 55.616L20.7412 56.5938L20.7512 56.5959L20.7612 56.5979L20.9507 55.616ZM15.9587 53.984L15.5191 54.8822L15.5305 54.8878L15.542 54.8931L15.9587 53.984ZM12.3107 51.344L11.5595 52.0041L11.5646 52.0099L11.5697 52.0155L12.3107 51.344ZM12.5987 43.472L11.9127 42.7444L11.9127 42.7444L12.5987 43.472ZM16.5347 41.984L16.4922 42.9831L16.4999 42.9834L16.5077 42.9836L16.5347 41.984ZM20.0867 42.752L19.711 43.6787L19.7218 43.6831L19.7328 43.6873L20.0867 42.752ZM23.6867 44.096L23.341 45.0344L23.3488 45.0372L23.6867 44.096ZM30.0227 44.288L29.468 43.4559L29.468 43.4559L30.0227 44.288ZM29.7347 41.408L30.261 40.5577L30.261 40.5577L29.7347 41.408ZM27.1907 40.448L26.9528 41.4193L26.9649 41.4222L26.977 41.4249L27.1907 40.448ZM24.8387 39.872L25.0766 38.9007L25.0692 38.8989L24.8387 39.872ZM18.3107 37.952L17.9528 38.8857L17.9596 38.8884L17.9664 38.8909L18.3107 37.952ZM13.7507 35.072L13.0054 35.7388L13.0147 35.7491L13.0242 35.7592L13.7507 35.072ZM13.9427 24.848L14.6921 25.5102L14.6995 25.5016L13.9427 24.848ZM18.8867 21.776L18.5926 20.8202L18.5926 20.8202L18.8867 21.776ZM32.7587 21.632L32.4943 22.5964L32.4943 22.5964L32.7587 21.632ZM37.3667 23.984L36.6813 24.7122L36.6866 24.7172L36.6919 24.722L37.3667 23.984ZM37.7507 31.424L37.0308 30.7299L37.0304 30.7304L37.7507 31.424ZM31.4627 32.24L31.1557 33.1917L31.1644 33.1945L31.4627 32.24ZM28.2947 31.328L28.0125 32.2874L28.029 32.2922L28.0456 32.2965L28.2947 31.328ZM22.2467 31.376L22.7323 32.2502L22.7505 32.2401L22.7681 32.2293L22.2467 31.376ZM22.5347 34.16L22.1501 35.0831L22.1501 35.0831L22.5347 34.16ZM26.3267 35.312L26.08 36.2811L26.0903 36.2837L26.1006 36.2861L26.3267 35.312ZM29.0147 35.936L29.2539 34.9649L29.2408 34.9619L29.0147 35.936ZM34.8227 37.904L34.4036 38.812L34.4036 38.812L34.8227 37.904ZM38.7107 40.928L37.9082 41.5247L37.9082 41.5247L38.7107 40.928ZM38.3747 51.776L39.1686 52.3841L39.1747 52.376L38.3747 51.776ZM33.5747 55.088L33.2496 54.1423L33.2496 54.1423L33.5747 55.088ZM26.3747 55.144C24.6486 55.144 22.904 54.9745 21.1402 54.6341L20.7612 56.5979C22.6454 56.9615 24.5168 57.144 26.3747 57.144V55.144ZM21.1602 54.6382C19.4336 54.2682 17.8397 53.7461 16.3753 53.0749L15.542 54.8931C17.1497 55.6299 18.8838 56.1958 20.7412 56.5938L21.1602 54.6382ZM16.3982 53.0858C14.9847 52.3941 13.8785 51.5849 13.0517 50.6725L11.5697 52.0155C12.5988 53.1511 13.9247 54.1019 15.5191 54.8822L16.3982 53.0858ZM13.0619 50.6839C12.2904 49.806 11.9187 48.8233 11.9187 47.696H9.91869C9.91869 49.3207 10.475 50.77 11.5595 52.0041L13.0619 50.6839ZM11.9187 47.696C11.9187 46.1681 12.3946 45.0389 13.2847 44.1996L11.9127 42.7444C10.5628 44.0171 9.91869 45.7039 9.91869 47.696H11.9187ZM13.2847 44.1996C14.2134 43.324 15.2645 42.9309 16.4922 42.9831L16.5772 40.9849C14.7969 40.9091 13.224 41.508 11.9127 42.7444L13.2847 44.1996ZM16.5077 42.9836C17.5629 43.0122 18.6291 43.2402 19.711 43.6787L20.4624 41.8253C19.1762 41.3038 17.8745 41.0198 16.5617 40.9844L16.5077 42.9836ZM19.7328 43.6873C20.9196 44.1363 22.1223 44.5854 23.341 45.0343L24.0324 43.1577C22.8191 42.7106 21.6218 42.2637 20.4406 41.8167L19.7328 43.6873ZM23.3488 45.0372C24.6984 45.5217 26.0605 45.768 27.4307 45.768V43.768C26.3049 43.768 25.171 43.5663 24.0246 43.1548L23.3488 45.0372ZM27.4307 45.768C28.6937 45.768 29.8284 45.6194 30.5774 45.12L29.468 43.4559C29.257 43.5966 28.6637 43.768 27.4307 43.768V45.768ZM30.5774 45.12C31.3155 44.6279 31.7427 43.8937 31.7427 42.992H29.7427C29.7427 43.1783 29.6898 43.3081 29.468 43.4559L30.5774 45.12ZM31.7427 42.992C31.7427 41.9212 31.1477 41.1066 30.261 40.5577L29.2083 42.2583C29.6657 42.5414 29.7427 42.7828 29.7427 42.992H31.7427ZM30.261 40.5577C29.4671 40.0662 28.5051 39.7119 27.4044 39.4711L26.977 41.4249C27.9243 41.6321 28.6583 41.9178 29.2083 42.2583L30.261 40.5577ZM27.4286 39.4767L25.0766 38.9007L24.6008 40.8433L26.9528 41.4193L27.4286 39.4767ZM25.0692 38.8989C22.6676 38.3301 20.5306 37.7009 18.6549 37.0131L17.9664 38.8909C19.9307 39.6111 22.1458 40.2619 24.6082 40.8451L25.0692 38.8989ZM18.6686 37.0183C16.8529 36.3222 15.471 35.4355 14.4772 34.3848L13.0242 35.7592C14.2703 37.0765 15.9285 38.1098 17.9528 38.8857L18.6686 37.0183ZM14.4959 34.4052C13.6082 33.4131 13.1187 32.0544 13.1187 30.224H11.1187C11.1187 32.4256 11.7171 34.2989 13.0054 35.7388L14.4959 34.4052ZM13.1187 30.224C13.1187 28.2081 13.6689 26.668 14.692 25.5102L13.1934 24.1858C11.7845 25.78 11.1187 27.8239 11.1187 30.224H13.1187ZM14.6995 25.5016C15.7731 24.2585 17.2494 23.3261 19.1808 22.7318L18.5926 20.8202C16.364 21.5059 14.5443 22.6215 13.1859 24.1944L14.6995 25.5016ZM19.1808 22.7318C21.1504 22.1257 23.3693 21.816 25.8467 21.816V19.816C23.2041 19.816 20.7829 20.1463 18.5926 20.8202L19.1808 22.7318ZM25.8467 21.816C28.4046 21.816 30.6163 22.0815 32.4943 22.5964L33.0231 20.6676C30.9331 20.0945 28.5368 19.816 25.8467 19.816V21.816ZM32.4943 22.5964C34.3771 23.1127 35.7485 23.8343 36.6813 24.7122L38.0521 23.2558C36.8088 22.0857 35.1083 21.2393 33.0231 20.6676L32.4943 22.5964ZM36.6919 24.722C37.612 25.5632 38.0467 26.5465 38.0467 27.728H40.0467C40.0467 25.9655 39.3614 24.4528 38.0415 23.246L36.6919 24.722ZM38.0467 27.728C38.0467 29.1075 37.6715 30.0655 37.0308 30.7299L38.4705 32.1181C39.5579 30.9905 40.0467 29.4845 40.0467 27.728H38.0467ZM37.0304 30.7304C36.4197 31.3645 35.5782 31.72 34.3907 31.72V33.72C36.0192 33.72 37.4177 33.2115 38.471 32.1176L37.0304 30.7304ZM34.3907 31.72C33.5782 31.72 32.7031 31.58 31.761 31.2855L31.1644 33.1945C32.2702 33.54 33.3472 33.72 34.3907 33.72V31.72ZM31.7697 31.2883C30.7566 30.9615 29.6811 30.652 28.5437 30.3595L28.0456 32.2965C29.1482 32.58 30.1848 32.8785 31.1557 33.1917L31.7697 31.2883ZM28.5769 30.3686C27.3885 30.0191 26.1247 29.848 24.7907 29.848V31.848C25.9527 31.848 27.0248 31.9969 28.0125 32.2874L28.5769 30.3686ZM24.7907 29.848C23.595 29.848 22.5303 30.0307 21.7252 30.5227L22.7681 32.2293C23.1151 32.0173 23.7464 31.848 24.7907 31.848V29.848ZM21.761 30.5018C20.9471 30.954 20.3827 31.6822 20.3827 32.672H22.3827C22.3827 32.5738 22.3943 32.438 22.7323 32.2502L21.761 30.5018ZM20.3827 32.672C20.3827 33.2127 20.5423 33.7241 20.88 34.1602C21.2072 34.5829 21.6566 34.8774 22.1501 35.0831L22.9193 33.2369C22.6448 33.1226 22.5182 33.0091 22.4614 32.9358C22.4151 32.8759 22.3827 32.8033 22.3827 32.672H20.3827ZM22.1501 35.0831C22.9901 35.4331 24.3146 35.8317 26.08 36.2811L26.5734 34.3429C24.8188 33.8963 23.6153 33.5269 22.9193 33.2369L22.1501 35.0831ZM26.1006 36.2861L28.7886 36.9101L29.2408 34.9619L26.5528 34.3379L26.1006 36.2861ZM28.7755 36.907C30.9357 37.4392 32.8093 38.0761 34.4036 38.812L35.2417 36.996C33.5081 36.1959 31.5096 35.5208 29.2539 34.965L28.7755 36.907ZM34.4036 38.812C35.943 39.5224 37.0964 40.433 37.9082 41.5247L39.5132 40.3313C38.469 38.927 37.0304 37.8216 35.2417 36.996L34.4036 38.812ZM37.9082 41.5247C38.6745 42.5552 39.1027 43.9592 39.1027 45.824H41.1027C41.1027 43.6568 40.6029 41.7968 39.5131 40.3313L37.9082 41.5247ZM39.1027 45.824C39.1027 48.0979 38.5658 49.8546 37.5747 51.176L39.1747 52.376C40.4876 50.6254 41.1027 48.4141 41.1027 45.824H39.1027ZM37.5808 51.1679C36.5649 52.4942 35.1389 53.4929 33.2496 54.1423L33.8998 56.0337C36.1064 55.2751 37.8804 54.0658 39.1686 52.3841L37.5808 51.1679ZM33.2496 54.1423C31.3302 54.8021 29.0446 55.144 26.3747 55.144V57.144C29.2088 57.144 31.7232 56.7819 33.8998 56.0337L33.2496 54.1423Z" fill="#FFFEFE" mask="url(#path-2-outside-1_2024_152)"/>
</svg>
