<svg width="153" height="20" viewBox="0 0 153 20" fill="none" xmlns="http://www.w3.org/2000/svg">
<path d="M2.22056 14.224C3.58056 15.584 4.94056 16.264 6.30056 16.264C7.00456 16.264 7.56456 16.104 7.98056 15.784C8.41256 15.448 8.62856 15.024 8.62856 14.512C8.62856 13.984 8.37256 13.544 7.86056 13.192C7.34856 12.824 6.72456 12.504 5.98856 12.232C5.26856 11.96 4.54856 11.656 3.82856 11.32C3.10856 10.968 2.49256 10.472 1.98056 9.832C1.46856 9.192 1.21256 8.416 1.21256 7.504C1.21256 6.064 1.81256 4.824 3.01256 3.784C4.21256 2.728 5.63656 2.2 7.28456 2.2C8.03656 2.2 8.76456 2.28 9.46856 2.44C10.1726 2.6 10.8526 2.832 11.5086 3.136L9.87656 6.64C9.42856 6.288 8.81256 5.968 8.02856 5.68C7.26056 5.376 6.58056 5.224 5.98856 5.224C5.41256 5.224 4.94056 5.368 4.57256 5.656C4.22056 5.928 4.04456 6.296 4.04456 6.76C4.04456 7.224 4.30056 7.64 4.81256 8.008C5.32456 8.36 5.94056 8.672 6.66056 8.944C7.39656 9.216 8.12456 9.52 8.84456 9.856C9.58056 10.176 10.2046 10.656 10.7166 11.296C11.2286 11.936 11.4846 12.712 11.4846 13.624C11.4846 15.128 10.8846 16.448 9.68456 17.584C8.48456 18.704 7.08456 19.264 5.48456 19.264C4.28456 19.264 3.22056 18.976 2.29256 18.4C1.47656 17.904 0.90056 17.464 0.56456 17.08L0.34856 16.816L2.22056 14.224ZM14.1949 7.384V4.768L17.4349 4.144L17.1229 7.384H20.0269L19.7629 9.352H17.0269L16.9069 14.368C16.9069 15.12 16.9789 15.624 17.1229 15.88C17.2669 16.12 17.5309 16.24 17.9149 16.24C18.2989 16.24 18.8109 16.152 19.4509 15.976L19.5949 17.68C18.5389 18.56 17.6109 19 16.8109 19C16.0109 19 15.3549 18.712 14.8429 18.136C14.3309 17.544 14.0749 16.776 14.0749 15.832L14.2189 13.144L14.1949 9.352H12.5389L12.8029 7.384H14.1949ZM21.2861 7.408L24.1901 6.784C24.3341 8.016 24.4301 9.184 24.4781 10.288C25.9341 8.032 27.3021 6.904 28.5821 6.904L28.3181 10.648C27.3901 10.648 26.6541 10.736 26.1101 10.912C25.5821 11.072 25.0381 11.4 24.4781 11.896V12.76L24.7421 18.4L21.5261 19L21.8141 13.168C21.7501 11.024 21.5741 9.104 21.2861 7.408ZM34.1848 16.552C34.6488 16.552 35.1368 16.432 35.6488 16.192C36.1608 15.952 36.5608 15.712 36.8488 15.472L37.2808 15.112L38.3848 16.456C38.2248 16.728 37.9768 17.04 37.6408 17.392C37.3048 17.744 36.9608 18.048 36.6088 18.304C36.2728 18.544 35.8168 18.768 35.2408 18.976C34.6808 19.168 34.0968 19.264 33.4888 19.264C32.1928 19.264 31.1368 18.776 30.3208 17.8C29.5048 16.808 29.0968 15.536 29.0968 13.984C29.0968 12.032 29.6648 10.32 30.8008 8.848C31.9368 7.376 33.2648 6.64 34.7848 6.64C35.9528 6.64 36.8568 6.968 37.4968 7.624C38.1528 8.28 38.4808 9.2 38.4808 10.384C38.4808 11.088 38.3608 11.888 38.1208 12.784L37.6408 13.288L31.6408 13.84C31.9128 15.648 32.7608 16.552 34.1848 16.552ZM34.1848 9.112C33.4808 9.112 32.8888 9.4 32.4088 9.976C31.9288 10.536 31.6488 11.256 31.5688 12.136L35.6488 11.632C35.6968 11.264 35.7208 10.96 35.7208 10.72C35.7208 9.648 35.2088 9.112 34.1848 9.112ZM42.7357 19C41.7917 19 41.0157 18.704 40.4077 18.112C39.8157 17.504 39.5197 16.696 39.5197 15.688C39.5197 14.664 39.9837 13.784 40.9117 13.048C41.8397 12.296 42.9677 11.92 44.2957 11.92H45.9277V11.512C45.9277 10.728 45.7677 10.192 45.4477 9.904C45.1277 9.616 44.5277 9.472 43.6477 9.472C43.2797 9.472 42.8397 9.552 42.3277 9.712C41.8317 9.856 41.2717 10.088 40.6477 10.408L39.9517 8.512C40.6397 8.032 41.4717 7.6 42.4477 7.216C43.4397 6.832 44.2557 6.64 44.8957 6.64C47.4077 6.64 48.6637 7.856 48.6637 10.288V14.992C48.6637 15.888 48.9437 16.888 49.5037 17.992L46.9597 19.072C46.5597 18.304 46.2637 17.616 46.0717 17.008C45.1917 18.336 44.0797 19 42.7357 19ZM43.7437 16.552C44.3837 16.552 45.1117 16.224 45.9277 15.568V13.96C45.0797 13.768 44.3917 13.672 43.8637 13.672C42.8557 13.672 42.3517 14.12 42.3517 15.016C42.3517 15.48 42.4797 15.856 42.7357 16.144C42.9917 16.416 43.3277 16.552 43.7437 16.552ZM58.3057 12.928C58.3057 11.824 58.2097 11.088 58.0177 10.72C57.8257 10.352 57.3777 10.168 56.6737 10.168C55.9697 10.168 55.1697 10.448 54.2737 11.008V12.76L54.5377 18.4L51.3217 19L51.6097 13.168C51.5457 11.024 51.3697 9.104 51.0817 7.408L53.9857 6.784C54.0977 7.712 54.1777 8.616 54.2257 9.496C54.4657 9.176 54.7377 8.864 55.0417 8.56C55.3457 8.24 55.8257 7.888 56.4817 7.504C57.1377 7.104 57.8017 6.904 58.4737 6.904C59.1457 6.904 59.7137 7.12 60.1777 7.552C60.6417 7.984 60.9377 8.576 61.0657 9.328C62.3937 7.712 63.7377 6.904 65.0977 6.904C65.9457 6.904 66.6177 7.192 67.1137 7.768C67.6097 8.328 67.8577 9.096 67.8577 10.072L67.7137 12.76L67.9777 18.52L64.7377 19.12L65.0257 12.928C65.0257 11.824 64.9297 11.088 64.7377 10.72C64.5457 10.352 64.1057 10.168 63.4177 10.168C62.7297 10.168 61.9537 10.432 61.0897 10.96L60.9937 12.76L61.2577 18.52L58.0177 19.12L58.3057 12.928Z" fill="black"/>
<path d="M76.0114 19.264C74.2354 19.264 72.7394 18.52 71.5234 17.032C70.3074 15.544 69.6994 13.72 69.6994 11.56C69.6994 8.92 70.4274 6.696 71.8834 4.888C73.3554 3.08 75.1554 2.176 77.2834 2.176C78.1154 2.176 78.8834 2.264 79.5874 2.44C80.3074 2.6 80.8194 2.768 81.1234 2.944L81.5554 3.208L79.9234 6.544C79.5554 6.224 79.0354 5.928 78.3634 5.656C77.6914 5.368 77.0834 5.224 76.5394 5.224C75.4354 5.224 74.5474 5.68 73.8754 6.592C73.2194 7.504 72.8914 8.808 72.8914 10.504C72.8914 12.184 73.2354 13.568 73.9234 14.656C74.6114 15.728 75.5474 16.264 76.7314 16.264C77.4994 16.264 78.1954 16.024 78.8194 15.544C79.4434 15.064 79.8834 14.424 80.1394 13.624L82.1314 14.776C81.6034 16.184 80.7954 17.288 79.7074 18.088C78.6194 18.872 77.3874 19.264 76.0114 19.264ZM85.7501 19C84.8061 19 84.0301 18.704 83.4221 18.112C82.8301 17.504 82.5341 16.696 82.5341 15.688C82.5341 14.664 82.9981 13.784 83.9261 13.048C84.8541 12.296 85.9821 11.92 87.3101 11.92H88.9421V11.512C88.9421 10.728 88.7821 10.192 88.4621 9.904C88.1421 9.616 87.5421 9.472 86.6621 9.472C86.2941 9.472 85.8541 9.552 85.3421 9.712C84.8461 9.856 84.2861 10.088 83.6621 10.408L82.9661 8.512C83.6541 8.032 84.4861 7.6 85.4621 7.216C86.4541 6.832 87.2701 6.64 87.9101 6.64C90.4221 6.64 91.6781 7.856 91.6781 10.288V14.992C91.6781 15.888 91.9581 16.888 92.5181 17.992L89.9741 19.072C89.5741 18.304 89.2781 17.616 89.0861 17.008C88.2061 18.336 87.0941 19 85.7501 19ZM86.7581 16.552C87.3981 16.552 88.1261 16.224 88.9421 15.568V13.96C88.0941 13.768 87.4061 13.672 86.8781 13.672C85.8701 13.672 85.3661 14.12 85.3661 15.016C85.3661 15.48 85.4941 15.856 85.7501 16.144C86.0061 16.416 86.3421 16.552 86.7581 16.552ZM97.6481 0.423999L97.3361 12.76L97.6001 18.4L94.3601 19L94.6481 13.168L94.3601 1.024L97.6481 0.423999ZM104.51 16.552C104.974 16.552 105.462 16.432 105.974 16.192C106.486 15.952 106.886 15.712 107.174 15.472L107.606 15.112L108.71 16.456C108.55 16.728 108.302 17.04 107.966 17.392C107.63 17.744 107.286 18.048 106.934 18.304C106.598 18.544 106.142 18.768 105.566 18.976C105.006 19.168 104.422 19.264 103.814 19.264C102.518 19.264 101.462 18.776 100.646 17.8C99.8304 16.808 99.4224 15.536 99.4224 13.984C99.4224 12.032 99.9904 10.32 101.126 8.848C102.262 7.376 103.59 6.64 105.11 6.64C106.278 6.64 107.182 6.968 107.822 7.624C108.478 8.28 108.806 9.2 108.806 10.384C108.806 11.088 108.686 11.888 108.446 12.784L107.966 13.288L101.966 13.84C102.238 15.648 103.086 16.552 104.51 16.552ZM104.51 9.112C103.806 9.112 103.214 9.4 102.734 9.976C102.254 10.536 101.974 11.256 101.894 12.136L105.974 11.632C106.022 11.264 106.046 10.96 106.046 10.72C106.046 9.648 105.534 9.112 104.51 9.112ZM117.621 12.928C117.621 11.824 117.525 11.088 117.333 10.72C117.141 10.352 116.693 10.168 115.989 10.168C115.285 10.168 114.485 10.448 113.589 11.008V12.76L113.853 18.4L110.637 19L110.925 13.168C110.861 11.024 110.685 9.104 110.397 7.408L113.301 6.784C113.413 7.712 113.493 8.616 113.541 9.496C113.781 9.176 114.053 8.864 114.357 8.56C114.661 8.24 115.141 7.888 115.797 7.504C116.453 7.104 117.141 6.904 117.861 6.904C118.597 6.904 119.213 7.192 119.709 7.768C120.205 8.328 120.453 9.096 120.453 10.072L120.309 12.76L120.573 18.52L117.333 19.12L117.621 12.928ZM129.32 16.648C128.072 18.216 126.992 19 126.08 19C124.944 19 124.008 18.536 123.272 17.608C122.552 16.68 122.192 15.488 122.192 14.032C122.192 12.032 122.744 10.344 123.848 8.968C124.968 7.592 126.336 6.904 127.952 6.904L129.296 7.096V6.64L129.008 1.024L132.296 0.423999L131.984 12.76V14.872C131.984 15.832 132.224 16.936 132.704 18.184L130.112 19.264C129.648 18.304 129.384 17.432 129.32 16.648ZM124.88 12.784C124.88 13.808 125.064 14.608 125.432 15.184C125.816 15.76 126.36 16.048 127.064 16.048C127.784 16.048 128.528 15.76 129.296 15.184V10C128.336 9.808 127.624 9.712 127.16 9.712C126.44 9.712 125.88 9.968 125.48 10.48C125.08 10.992 124.88 11.76 124.88 12.784ZM137.191 19C136.247 19 135.471 18.704 134.863 18.112C134.271 17.504 133.975 16.696 133.975 15.688C133.975 14.664 134.439 13.784 135.367 13.048C136.295 12.296 137.423 11.92 138.751 11.92H140.383V11.512C140.383 10.728 140.223 10.192 139.903 9.904C139.583 9.616 138.983 9.472 138.103 9.472C137.735 9.472 137.295 9.552 136.783 9.712C136.287 9.856 135.727 10.088 135.103 10.408L134.407 8.512C135.095 8.032 135.927 7.6 136.903 7.216C137.895 6.832 138.711 6.64 139.351 6.64C141.863 6.64 143.119 7.856 143.119 10.288V14.992C143.119 15.888 143.399 16.888 143.959 17.992L141.415 19.072C141.015 18.304 140.719 17.616 140.527 17.008C139.647 18.336 138.535 19 137.191 19ZM138.199 16.552C138.839 16.552 139.567 16.224 140.383 15.568V13.96C139.535 13.768 138.847 13.672 138.319 13.672C137.311 13.672 136.807 14.12 136.807 15.016C136.807 15.48 136.935 15.856 137.191 16.144C137.447 16.416 137.783 16.552 138.199 16.552ZM145.537 7.408L148.441 6.784C148.585 8.016 148.681 9.184 148.729 10.288C150.185 8.032 151.553 6.904 152.833 6.904L152.569 10.648C151.641 10.648 150.905 10.736 150.361 10.912C149.833 11.072 149.289 11.4 148.729 11.896V12.76L148.993 18.4L145.777 19L146.065 13.168C146.001 11.024 145.825 9.104 145.537 7.408Z" fill="#5D57EE"/>
</svg>
