<svg width="22" height="22" viewBox="0 0 22 22" fill="none" xmlns="http://www.w3.org/2000/svg">
<path d="M3 15.5002C1.5 16.7602 1 20.5002 1 20.5002C1 20.5002 4.74 20.0002 6 18.5002C6.71 17.6602 6.7 16.3702 5.91 15.5902C5.52131 15.2193 5.00929 15.0049 4.47223 14.9883C3.93516 14.9717 3.41088 15.154 3 15.5002ZM10.5 14.0002L7.5 11.0002C8.03214 9.61968 8.7022 8.29631 9.5 7.05025C10.6652 5.18723 12.2876 3.6533 14.213 2.59434C16.1384 1.53538 18.3027 0.986619 20.5 1.00025C20.5 3.72025 19.72 8.50025 14.5 12.0002C13.2367 12.7987 11.8967 13.4687 10.5 14.0002Z" stroke="white" stroke-width="2" stroke-linecap="round" stroke-linejoin="round"/>
<path d="M7.5 11H2.5C2.5 11 3.05 7.97002 4.5 7.00002C6.12 5.92002 9.5 7.00002 9.5 7.00002M10.5 14V19C10.5 19 13.53 18.45 14.5 17C15.58 15.38 14.5 12 14.5 12" stroke="white" stroke-width="2" stroke-linecap="round" stroke-linejoin="round"/>
</svg>
