<svg width="19" height="20" viewBox="0 0 19 20" fill="none" xmlns="http://www.w3.org/2000/svg">
<path d="M9.69233 8.57062V11.9981H15.1915C14.9674 13.4694 13.5287 16.3113 9.69233 16.3113C6.38604 16.3113 3.6849 13.4856 3.6849 9.99937C3.6849 6.51312 6.38543 3.6875 9.69233 3.6875C11.5757 3.6875 12.8381 4.51125 13.5571 5.2275L16.1856 2.61375C14.4979 0.989375 12.3111 0 9.69233 0C4.3349 0 0 4.46937 0 10C0 15.5306 4.3349 20 9.69233 20C15.286 20 19 15.9438 19 10.2281C19 9.57063 18.9303 9.06938 18.8455 8.57125L9.69233 8.57062Z" fill="white"/>
</svg>
